# xmcd
#
# Track frame offsets: 
#        150
#        15742
#        31592
#        43617
#        57707
#        69875
#
# Disc length: 1119 seconds
#
# Revision: 0
# Processed by: cddbd v1.5PL3 Copyright (c) Steve Scherf et al.
# Submitted via: ExactAudioCopy v0.90b4
#
DISCID=45045d06
DTITLE=Keith Whitley - A Hard Act To Follow
DYEAR=1900
DGENRE=Country
TTITLE0=Turn To Love
TTITLE1=Living Like There's No Tomorrow
TTITLE2=A Hard Act To Follow
TTITLE3=If A Broken Heart Could Kill
TTITLE4=If You Think I'm Crazy
TTITLE5=Don't Our Love Look Natural
EXTD=
EXTT0=
EXTT1=
EXTT2=
EXTT3=
EXTT4=
EXTT5=
PLAYORDER=
